:SAMPLES-PER-SECOND 30
:FULLY-SPECIFIED
:DEGREES
319
root  0.476349 33.5171 10.7681 -30.6106 -71.5908 39.9547
RightUpLeg  -5.12879 -26.1565 -50.4403
RightLeg  4.77857 -16.371 -5.62712
RightFoot  28.7033 -10.307 28.4987
RightToes  -6.40286e-010 0 -3.6325e-017
Spine  25.4608 8.93935 26.9528
Spine1  -29.6587 10.9197 -30.9654
HEad  -21.0685 -26.4683 -12.228
LeftShoulder1  -0.443829 12.8281 4.25958
LeftArm  -10.226 42.3306 -49.1224
LeftForeArm  1.65515 -17.3327 -7.40947
LeftHand  -0.299501 4.46447 37.7925
RightShoulder  0.0102878 -7.79498 -9.8501
RightArm  -47.0804 -7.14197 -20.0503
RightForeArm  -25.1319 28.3371 7.33177
RightHand  -0.916161 -0.0179534 -19.748
LeftUpLeg  -42.3642 34.958 2.90504
LeftLeg  56.836 -16.0998 -24.202
LeftFoot  -6.12408 1.06668 -22.3467
LeftToes  -2.09187e-010 -4.93792e-011 -8.21189e-011
320
root  0.467865 33.6729 12.0105 -29.2832 -70.6802 38.881
RightUpLeg  -1.71006 -28.4947 -51.2043
RightLeg  -2.81744 -19.8496 -3.71795
RightFoot  38.0539 -8.61569 19.142
RightToes  -6.40286e-010 0 -3.6325e-017
Spine  25.5167 10.5344 29.262
Spine1  -28.7683 13.171 -32.3219
HEad  -21.6337 -30.8754 -12.9492
LeftShoulder1  -0.24546 15.0551 7.2791
LeftArm  -6.71751 41.7221 -46.4685
LeftForeArm  -2.31523 -21.8097 -5.57027
LeftHand  -0.124473 4.99436 39.1719
RightShoulder  -0.0323041 -6.86141 -8.4633
RightArm  -47.7676 -10.4918 -18.5549
RightForeArm  -31.8997 26.6126 7.17194
RightHand  -0.835613 -0.571637 -20.0494
LeftUpLeg  -43.1807 34.8137 0.0545305
LeftLeg  58.4389 -15.4511 -24.7075
LeftFoot  -7.65075 0.680426 -19.5235
LeftToes  -2.09187e-010 -4.93792e-011 -8.21189e-011
321
root  0.578381 33.6402 13.0434 -29.2485 -71.198 39.1106
RightUpLeg  -2.0475 -28.6417 -51.2541
RightLeg  -4.59904 -21.4602 -2.19412
RightFoot  42.1108 -6.3358 13.1227
RightToes  -6.40286e-010 0 -3.6325e-017
Spine  26.2582 11.6845 31.0093
Spine1  -27.9943 15.1191 -32.8966
HEad  -23.7161 -32.8776 -12.9425
LeftShoulder1  -0.0422531 16.1627 9.29364
LeftArm  -9.17274 42.0169 -43.1488
LeftForeArm  -0.0823609 -26.6837 -5.652
LeftHand  0.0945869 5.60079 41.0639
RightShoulder  -0.0570268 -5.82696 -6.72743
RightArm  -48.4304 -13.3789 -16.6708
RightForeArm  -38.2778 24.7073 6.86679
RightHand  -0.803273 -1.08587 -21.5163
LeftUpLeg  -43.794 34.418 -1.39141
LeftLeg  60.069 -14.2922 -24.4843
LeftFoot  -10.1788 0.243568 -17.9374
LeftToes  -2.09187e-010 -4.93792e-011 -8.21189e-011
322
root  0.78447 33.4685 13.8396 -29.8056 -72.3369 39.9364
RightUpLeg  -4.94271 -29.5041 -50.4072
RightLeg  -2.71066 -19.6642 -2.95527
RightFoot  43.4391 -5.26825 10.7692
RightToes  -6.40286e-010 0 -3.6325e-017
Spine  27.1707 12.1765 31.3804
Spine1  -27.1499 16.3641 -31.6834
HEad  -27.7198 -32.7756 -12.0215
LeftShoulder1  0.0776041 16.6762 10.3276
LeftArm  -13.1461 43.2306 -39.0795
LeftForeArm  2.37479 -31.9495 -6.90469
LeftHand  0.33546 6.20302 42.9681
RightShoulder  -0.0454124 -4.61254 -4.77968
RightArm  -46.1499 -15.5036 -14.2819
RightForeArm  -44.1637 22.6042 6.09263
RightHand  -0.75524 -1.69486 -23.4947
LeftUpLeg  -44.4907 33.5048 -2.00887
LeftLeg  61.6068 -12.8442 -23.6107
LeftFoot  -13.1937 -0.203674 -17.2711
LeftToes  -2.09187e-010 -4.93792e-011 -8.21189e-011
323
root  0.988236 33.1881 14.3769 -29.4037 -73.0665 40.0781
RightUpLeg  -8.16717 -30.1511 -49.6387
RightLeg  -0.0489727 -17.121 -4.43309
RightFoot  44.4463 -4.74269 9.57317
RightToes  -6.40286e-010 0 -3.6325e-017
Spine  27.7325 12.2031 30.4982
Spine1  -26.5708 16.7198 -29.6673
HEad  -32.049 -31.8471 -10.7365
LeftShoulder1  0.119978 16.9782 10.6657
LeftArm  -16.5558 43.3422 -34.315
LeftForeArm  2.3454 -36.7162 -8.22242
LeftHand  0.574716 6.752 44.6658
RightShoulder  -0.00125482 -3.53541 -2.61376
RightArm  -41.1254 -18.1906 -11.1075
RightForeArm  -48.3517 21.6709 5.46879
RightHand  -0.687557 -2.16349 -24.424
LeftUpLeg  -45.701 31.5981 -2.22931
LeftLeg  63.1163 -11.4499 -22.6127
LeftFoot  -16.1134 -0.642809 -17.5651
LeftToes  -2.09187e-010 -4.93792e-011 -8.21189e-011
324
root  1.1329 32.8435 14.6769 -26.6631 -73.2804 38.2783
RightUpLeg  -10.501 -30.1211 -49.3401
RightLeg  2.47047 -15.1835 -5.37561
RightFoot  44.6027 -4.60196 9.2754
RightToes  -6.40286e-010 0 -3.6325e-017
Spine  28.0407 11.97 29.5325
Spine1  -26.679 16.4512 -28.266
HEad  -34.8343 -31.067 -9.94084
LeftShoulder1  0.120981 17.0056 10.671
LeftArm  -20.7443 40.905 -29.585
LeftForeArm  2.50097 -40.7606 -9.4885
LeftHand  0.775545 7.18211 45.9621
RightShoulder  0.0384309 -3.03386 -0.0841203
RightArm  -38.5358 -22.5645 -6.90615
RightForeArm  -47.285 22.4045 6.04242
RightHand  -0.726223 -1.9358 -24.1418
LeftUpLeg  -47.5142 28.9091 -1.97172
LeftLeg  64.5349 -10.21 -21.6107
LeftFoot  -18.8006 -1.11532 -18.6668
LeftToes  -2.09187e-010 -4.93792e-011 -8.21189e-011
325
root  1.24764 32.4495 14.7302 -21.9805 -73.4321 34.7361
RightUpLeg  -12.1001 -28.1808 -49.4723
RightLeg  5.74316 -15.2893 -5.66958
RightFoot  42.253 -5.61172 11.7309
RightToes  -6.40286e-010 0 -3.6325e-017
Spine  28.3548 11.6051 28.5667
Spine1  -27.1926 15.9318 -27.0182
HEad  -36.2298 -30.346 -9.92993
LeftShoulder1  0.0977619 16.7879 10.4899
LeftArm  -26.0533 36.7036 -25.7043
LeftForeArm  5.06865 -45.1161 -10.9091
LeftHand  1.00576 7.66867 46.9712
RightShoulder  0.0451073 -3.07091 2.57526
RightArm  -38.9229 -27.8995 -1.28869
RightForeArm  -44.058 23.8912 6.80878
RightHand  -0.830123 -1.40298 -23.931
LeftUpLeg  -49.7746 26.193 -1.13219
LeftLeg  65.7686 -8.86095 -19.9942
LeftFoot  -21.2149 -1.58819 -19.6924
LeftToes  -2.09187e-010 -4.93792e-011 -8.21189e-011
326
root  1.39706 32.0064 14.5117 -17.2136 -73.7996 30.9774
RightUpLeg  -13.7091 -24.8717 -50.0182
RightLeg  10.1733 -17.0206 -5.51171
RightFoot  37.5993 -7.70124 17.4634
RightToes  -6.40286e-010 0 -3.6325e-017
Spine  28.8175 11.1766 26.4113
Spine1  -27.5381 15.2851 -24.317
HEad  -37.8447 -29.153 -10.0666
LeftShoulder1  0.0610726 16.5447 10.1876
LeftArm  -31.1687 32.4106 -22.5985
LeftForeArm  9.50118 -50.4834 -12.9383
LeftHand  1.2666 8.20655 47.9134
RightShoulder  0.0405384 -3.17612 4.88469
RightArm  -40.0545 -32.7295 5.87301
RightForeArm  -42.8608 25.0378 7.13697
RightHand  -0.82035 -1.48646 -24.1587
LeftUpLeg  -52.2186 23.9649 0.138517
LeftLeg  66.8983 -7.25024 -17.3924
LeftFoot  -22.8788 -1.89094 -19.8985
LeftToes  -2.09187e-010 -4.93792e-011 -8.21189e-011
327
root  1.6086 31.5434 14.0527 -14.075 -74.6485 28.5202
RightUpLeg  -16.3774 -24.1712 -50.049
RightLeg  15.0496 -16.2461 -5.10118
RightFoot  32.4636 -9.79761 24.6543
RightToes  -6.40286e-010 0 -3.6325e-017
Spine  29.5879 10.723 22.6121
Spine1  -27.5726 14.5056 -19.8441
HEad  -40.3713 -27.2788 -9.52519
LeftShoulder1  0.0447857 16.2575 10.0554
LeftArm  -34.9503 28.7194 -19.6012
LeftForeArm  13.7659 -55.984 -15.6406
LeftHand  1.42028 8.5121 48.46
RightShoulder  0.0619019 -3.0625 6.78957
RightArm  -40.1941 -36.2902 13.9105
RightForeArm  -43.2623 25.3851 7.22057
RightHand  -0.677567 -2.14952 -23.9653
LeftUpLeg  -54.5018 22.4207 1.82811
LeftLeg  68.1018 -5.62219 -14.3633
LeftFoot  -23.2197 -1.92559 -19.6661
LeftToes  -2.09187e-010 -4.93792e-011 -8.21189e-011
